<?xml version="1.0" encoding="UTF-8"?>
<svg version="1.1" xmlns="http://www.w3.org/2000/svg" width="512" height="512">
<path d="M0 0 C0.30193268 1.13335785 0.60386536 2.2667157 0.91494751 3.43441772 C20.098965 75.44825519 20.098965 75.44825519 39.375 147.4375 C39.70474382 148.66576822 39.70474382 148.66576822 40.04114914 149.91884995 C42.25150424 158.1519323 44.46256471 166.3848251 46.67410564 174.617589 C49.64493766 185.67694225 52.61395587 196.73678162 55.58203125 207.796875 C55.81428783 208.66233507 56.04654442 209.52779514 56.28583908 210.41948128 C58.82925606 219.8972301 61.37210474 229.37513119 63.9140625 238.85327148 C64.13742468 239.68611255 64.36078686 240.51895361 64.59091759 241.37703228 C65.48864226 244.72438242 66.38635617 248.07173545 67.28398514 251.41911125 C70.02475179 261.63973831 72.76776688 271.85975691 75.51398945 282.07891941 C77.32719937 288.82651242 79.13870831 295.57456057 80.94894695 302.32295132 C82.01132199 306.28306609 83.07457097 310.2429414 84.13998413 314.20223999 C85.12093144 317.84768081 86.09960329 321.49372444 87.07645607 325.14026451 C87.43363613 326.47192341 87.79168129 327.8033506 88.15064049 329.13453102 C88.63771332 330.94128434 89.12144528 332.74893733 89.60498047 334.55664062 C89.87615692 335.56617798 90.14733337 336.57571533 90.42672729 337.61584473 C91 340 91 340 91 342 C81.70854009 344.93252688 72.35908096 347.58900634 62.94921875 350.109375 C61.72384399 350.43953613 60.49846924 350.76969727 59.23596191 351.10986328 C54.72048979 352.32577715 50.20393324 353.53766101 45.6875 354.75 C35.560625 357.4725 25.43375 360.195 15 363 C52.95 363.33 90.9 363.66 130 364 C130 381.82 130 399.64 130 418 C-38.96 418 -207.92 418 -382 418 C-382 400.18 -382 382.36 -382 364 C-373.42 363.67 -364.84 363.34 -356 363 C-350.70913205 356.77824183 -350.70913205 356.77824183 -347.69238281 349.89892578 C-346.74007718 347.28713693 -345.40636956 344.92872516 -344.0625 342.5 C-338.08175349 329.94248757 -337.67872782 316.28343689 -341.93359375 303.109375 C-344.57793387 296.26520058 -348.16387569 290.09372004 -352.05297852 283.89916992 C-355 279.18904779 -355 279.18904779 -355 277 C-363.91 277 -372.82 277 -382 277 C-381.0190534 272.09526701 -379.37212234 269.0340392 -376.75 264.9375 C-368.00719718 250.84146514 -363.80941011 237.33265499 -366.54296875 220.6953125 C-369.51384881 209.73234664 -375.72608259 199.41087612 -382 190 C-382 189.01 -382 188.02 -382 187 C-373.09 187 -364.18 187 -355 187 C-354.34 185.35 -353.68 183.7 -353 182 C-352.26884805 180.62667054 -351.50943802 179.268015 -350.72265625 177.92578125 C-343.88077151 166.55970478 -343.88077151 166.55970478 -340 154 C-339.75830078 152.53433594 -339.75830078 152.53433594 -339.51171875 151.0390625 C-337.2607416 132.25818248 -345.15948126 117.83215621 -355.06884766 102.66186523 C-356 101 -356 101 -356 99 C-323.11585372 98.93124475 -290.23172617 98.87842604 -257.34752434 98.84680401 C-253.46003564 98.84305216 -249.57254708 98.83916916 -245.68505859 98.83520508 C-244.9111711 98.83441815 -244.1372836 98.83363122 -243.33994497 98.83282044 C-230.83018559 98.81978753 -218.32046781 98.79614541 -205.81073307 98.76854161 C-192.96242706 98.74042842 -180.11414277 98.72381127 -167.26580727 98.71773452 C-159.34582553 98.7136303 -151.42596142 98.7006954 -143.50601591 98.6762506 C-137.41994793 98.65842966 -131.33397988 98.65664924 -125.24788284 98.66067696 C-122.76074248 98.6598549 -120.27359746 98.65393136 -117.78648376 98.64238358 C-81.42650267 98.48191182 -81.42650267 98.48191182 -66.875 112.875 C-65.57292675 114.24014946 -64.27729326 115.61163776 -63 117 C-63 113.22355215 -64.0010198 109.88850837 -64.98779297 106.27490234 C-65.19915894 105.48912811 -65.4105249 104.70335388 -65.6282959 103.89376831 C-66.3294886 101.29021731 -67.03590316 98.68811141 -67.7421875 96.0859375 C-68.23102546 94.27342906 -68.71947414 92.4608156 -69.20755005 90.64810181 C-70.49579151 85.86671371 -71.78818734 81.08645941 -73.08178711 76.30651855 C-75.1460646 68.67745979 -77.20553288 61.04710659 -79.26224136 53.41600418 C-79.97936119 50.7584698 -80.69912776 48.1016626 -81.41915894 45.44491577 C-81.86400584 43.79712414 -82.30876343 42.14930839 -82.75341797 40.50146484 C-82.95194366 39.7717749 -83.15046936 39.04208496 -83.35501099 38.2902832 C-84.71862996 33.2237523 -85.89865791 28.12971579 -87 23 C-69.97991219 17.93252228 -52.8800993 13.19971792 -35.71948242 8.63598633 C-32.30242355 7.72711998 -28.88702755 6.81215719 -25.47198772 5.89573765 C-22.17365533 5.01165457 -18.87386921 4.13305721 -15.57421875 3.25390625 C-14.35256516 2.92588516 -13.13091156 2.59786407 -11.87223816 2.25990295 C-10.18690727 1.81329567 -10.18690727 1.81329567 -8.4675293 1.35766602 C-7.48068649 1.09454117 -6.49384369 0.83141632 -5.47709656 0.56031799 C-3 0 -3 0 0 0 Z M-55 144 C-55.20753906 145.17175781 -55.41507812 146.34351563 -55.62890625 147.55078125 C-58.185809 160.97452067 -62.27189906 171.93561462 -74 180 C-81.08672037 184.12018626 -87.98943658 187.16800307 -96.2734375 187.4140625 C-97.42714844 187.45273438 -98.58085937 187.49140625 -99.76953125 187.53125 C-100.95933594 187.5621875 -102.14914062 187.593125 -103.375 187.625 C-104.58800781 187.66367188 -105.80101562 187.70234375 -107.05078125 187.7421875 C-110.03370521 187.83613786 -113.01662825 187.92180807 -116 188 C-113.51541618 189.65638921 -111.40948793 190.73731247 -108.6875 191.875 C-96.15390232 197.38003237 -89.09793647 206.51004186 -83.8125 218.75 C-80.70451652 231.18193394 -81.99494376 243.635207 -88 255 C-94.75837832 265.64085097 -103.97921508 271.64994519 -116 275 C-116 275.33 -116 275.66 -116 276 C-115.29504395 276.01458252 -114.59008789 276.02916504 -113.86376953 276.04418945 C-110.61700886 276.11944197 -107.37119124 276.21584374 -104.125 276.3125 C-102.46210938 276.34633789 -102.46210938 276.34633789 -100.765625 276.38085938 C-87.97492581 276.79467611 -76.68542145 279.92845685 -67.6328125 289.50390625 C-59.12131478 299.96400693 -55.28877483 310.06082778 -55.6484375 323.6953125 C-56.99441239 336.34747648 -62.1767003 346.28178523 -71.7421875 354.49609375 C-76.75736756 358.53442147 -81.94127531 360.8893787 -88 363 C-88 363.33 -88 363.66 -88 364 C-57.64 364 -27.28 364 4 364 C2.82103253 357.51567891 1.70407145 351.4542794 0.01074219 345.15795898 C-0.27388319 344.09231704 -0.27388319 344.09231704 -0.56425858 343.00514698 C-1.18970463 340.66765302 -1.82138407 338.33189353 -2.453125 335.99609375 C-2.90610777 334.30818887 -3.35869302 332.62017726 -3.81091309 330.93206787 C-5.03127458 326.38083608 -6.25702307 321.83107107 -7.48374939 317.28155136 C-8.77529041 312.48780772 -10.06172624 307.69269452 -11.34863281 302.89770508 C-13.49033072 294.9200599 -15.63482782 286.94317219 -17.78125 278.96679688 C-20.87082977 267.48474609 -23.9522779 256.00052421 -27.03125 244.515625 C-28.00225895 240.89395631 -28.97329588 237.27229512 -29.94433594 233.65063477 C-30.1800317 232.77154229 -30.41572746 231.89244982 -30.65856552 230.98671818 C-33.07797042 221.9633458 -35.49973383 212.94060695 -37.921875 203.91796875 C-41.66258518 189.98337515 -45.40205546 176.04844933 -49.140625 162.11328125 C-49.38662193 161.19635183 -49.63261887 160.27942242 -49.88607025 159.33470726 C-51.25741 154.22314618 -52.62871883 149.1115768 -54 144 C-54.33 144 -54.66 144 -55 144 Z " fill="#8C5D36" transform="translate(382,47)"/>
<path d="M0 0 C32.88414628 -0.06875525 65.76827383 -0.12157396 98.65247566 -0.15319599 C102.53996436 -0.15694784 106.42745292 -0.16083084 110.31494141 -0.16479492 C111.0888289 -0.16558185 111.8627164 -0.16636878 112.66005503 -0.16717956 C125.16981441 -0.18021247 137.67953219 -0.20385459 150.18926693 -0.23145839 C163.03757294 -0.25957158 175.88585723 -0.27618873 188.73419273 -0.28226548 C196.65417447 -0.2863697 204.57403858 -0.2993046 212.49398409 -0.3237494 C218.58005207 -0.34157034 224.66602012 -0.34335076 230.75211716 -0.33932304 C233.23925752 -0.3401451 235.72640254 -0.34606864 238.21351624 -0.35761642 C274.14553854 -0.51619942 274.14553854 -0.51619942 288.875 13.375 C296.95042902 21.93296784 301.08025451 33.86992217 301.4375 45.625 C300.82576257 58.66265404 296.21746379 69.36791918 286.6875 78.375 C282.19757338 82.11405152 277.39544991 84.78692198 272 87 C271.15566406 87.3609375 270.31132812 87.721875 269.44140625 88.09375 C264.37083412 89.42901985 259.34852898 89.47060998 254.125 89.625 C252.52011719 89.68300781 252.52011719 89.68300781 250.8828125 89.7421875 C248.25537592 89.83602452 245.62793829 89.92171557 243 90 C243.61198242 90.26554687 244.22396484 90.53109375 244.85449219 90.8046875 C245.66047852 91.15789062 246.46646484 91.51109375 247.296875 91.875 C248.09448242 92.22304687 248.89208984 92.57109375 249.71386719 92.9296875 C252.71099444 94.33287053 255.3263843 96.05555222 258 98 C258.804375 98.53625 259.60875 99.0725 260.4375 99.625 C269.73188495 108.239308 274.37156702 119.49616756 275.03515625 132.0234375 C274.87945083 145.20649642 270.17446922 156.57200486 261 166 C251.43973635 174.29190363 241.10755269 177.61592412 228.57881165 177.51898193 C227.48318804 177.52648319 226.38756444 177.53398444 225.25874013 177.541713 C221.61671396 177.56188387 217.97531667 177.55390798 214.33325195 177.54589844 C211.71096688 177.55463916 209.08868714 177.56512668 206.46641541 177.57722473 C200.83586734 177.60046016 195.20544778 177.60928869 189.5748539 177.60811615 C181.43415989 177.60644205 173.29363647 177.62683091 165.1529881 177.65247145 C151.94290207 177.69348601 138.73284688 177.71684844 125.52270508 177.72900391 C112.69617757 177.74084442 99.86970804 177.76106432 87.04321289 177.79248047 C85.85573659 177.79538462 85.85573659 177.79538462 84.64427087 177.79834744 C80.67248455 177.8081125 76.70069866 177.81804152 72.72891295 177.82805204 C39.81930012 177.91078587 6.90969857 177.96482725 -26 178 C-25.21325712 173.28004574 -23.29972018 169.92092538 -20.75 165.9375 C-12.00719718 151.84146514 -7.80941011 138.33265499 -10.54296875 121.6953125 C-13.51384881 110.73234664 -19.72608259 100.41087612 -26 91 C-26 90.01 -26 89.02 -26 88 C-17.09 88 -8.18 88 1 88 C1.66 86.35 2.32 84.7 3 83 C3.73115195 81.62667054 4.49056198 80.268015 5.27734375 78.92578125 C12.11922849 67.55970478 12.11922849 67.55970478 16 55 C16.16113281 54.02289063 16.32226562 53.04578125 16.48828125 52.0390625 C18.7392584 33.25818248 10.84051874 18.83215621 0.93115234 3.66186523 C0 2 0 2 0 0 Z " fill="#25B899" transform="translate(26,146)"/>
<path d="M0 0 C0.45289902 1.70003677 0.45289902 1.70003677 0.91494751 3.43441772 C20.098965 75.44825519 20.098965 75.44825519 39.375 147.4375 C39.59482922 148.25634548 39.81465843 149.07519096 40.04114914 149.91884995 C42.25150424 158.1519323 44.46256471 166.3848251 46.67410564 174.617589 C49.64493766 185.67694225 52.61395587 196.73678162 55.58203125 207.796875 C55.81428783 208.66233507 56.04654442 209.52779514 56.28583908 210.41948128 C58.82925606 219.8972301 61.37210474 229.37513119 63.9140625 238.85327148 C64.24910577 240.10253308 64.24910577 240.10253308 64.59091759 241.37703228 C65.48864226 244.72438242 66.38635617 248.07173545 67.28398514 251.41911125 C70.02475179 261.63973831 72.76776688 271.85975691 75.51398945 282.07891941 C77.32719937 288.82651242 79.13870831 295.57456057 80.94894695 302.32295132 C82.01132199 306.28306609 83.07457097 310.2429414 84.13998413 314.20223999 C85.12093144 317.84768081 86.09960329 321.49372444 87.07645607 325.14026451 C87.43363613 326.47192341 87.79168129 327.8033506 88.15064049 329.13453102 C88.63771332 330.94128434 89.12144528 332.74893733 89.60498047 334.55664062 C89.87615692 335.56617798 90.14733337 336.57571533 90.42672729 337.61584473 C91 340 91 340 91 342 C81.49715136 344.99629229 71.93705003 347.72385729 62.3203125 350.328125 C61.60178982 350.52304283 60.88326714 350.71796066 60.14297104 350.9187851 C56.35547263 351.945926 52.56721817 352.97022154 48.77832031 353.9921875 C44.8862702 355.04263276 40.99712804 356.10346499 37.10850716 357.16652298 C34.09197044 357.9890933 31.07335731 358.80382877 28.05413437 359.61647797 C26.61890974 360.00424649 25.18447418 360.39494871 23.75088882 360.78873444 C21.74899402 361.33787288 19.74438305 361.87576063 17.73876953 362.41113281 C16.60327667 362.71883606 15.46778381 363.02653931 14.29788208 363.34356689 C10.78720407 364.04235636 7.57034361 364.11515753 4 364 C0.8747493 352.35423393 -2.25022205 340.70839292 -5.375 329.0625 C-5.73599478 327.71709074 -5.73599478 327.71709074 -6.10428238 326.3445015 C-15.4453584 291.53041423 -24.77941348 256.714447 -34.11018753 221.89759731 C-34.63631438 219.93443146 -35.16245515 217.97126933 -35.68861008 216.008111 C-36.96822289 211.23368669 -38.24766937 206.45921796 -39.5267334 201.68464661 C-41.78300334 193.26338399 -44.04118674 184.84265201 -46.30771542 176.42414379 C-47.30807652 172.7084479 -48.30749636 168.99249904 -49.30692482 165.2765522 C-49.77165024 163.5498931 -50.23687581 161.82336851 -50.70267296 160.09699821 C-53.26542939 150.59865164 -55.76003471 141.09006769 -58.11012268 131.53668213 C-59.48514548 126.07186305 -61.01633192 120.65284123 -62.54864502 115.23040771 C-67.85369851 96.42648466 -72.9254218 77.55850531 -78.00130463 58.69177628 C-78.6257498 56.37221479 -79.25123449 54.05293592 -79.87701416 51.73373413 C-80.87185388 48.04621981 -81.86408552 44.35801357 -82.85426331 40.66924477 C-83.22567125 39.28704042 -83.59790654 37.90505811 -83.97099304 36.52330589 C-84.4851438 34.61822498 -84.99583798 32.71221219 -85.50634766 30.80615234 C-85.79595367 29.72892914 -86.08555969 28.65170593 -86.38394165 27.5418396 C-87 25 -87 25 -87 23 C-69.98186552 17.92632246 -52.87992007 13.19967025 -35.71948242 8.63598633 C-32.30242355 7.72711998 -28.88702755 6.81215719 -25.47198772 5.89573765 C-22.17365533 5.01165457 -18.87386921 4.13305721 -15.57421875 3.25390625 C-13.74173836 2.76187462 -13.74173836 2.76187462 -11.87223816 2.25990295 C-10.74868423 1.96216476 -9.62513031 1.66442657 -8.4675293 1.35766602 C-7.48068649 1.09454117 -6.49384369 0.83141632 -5.47709656 0.56031799 C-3 0 -3 0 0 0 Z " fill="#DC332D" transform="translate(382,47)"/>
<path d="M0 0 C33.58920372 -0.06870376 67.17838992 -0.12154789 100.76764833 -0.15319599 C104.73539848 -0.156948 108.70314849 -0.16083097 112.67089844 -0.16479492 C113.46078825 -0.16558185 114.25067806 -0.16636878 115.06450392 -0.16717956 C127.84532588 -0.18022466 140.62610726 -0.20387356 153.40690516 -0.23145839 C166.52639489 -0.25953754 179.64586339 -0.27618156 192.76538193 -0.28226548 C200.85734702 -0.28637673 208.94919739 -0.29935016 217.04112716 -0.3237494 C223.25162002 -0.34151891 229.46202586 -0.34335928 235.67254066 -0.33932304 C238.21618798 -0.34014754 240.75983968 -0.34610374 243.30346107 -0.35761642 C246.78147592 -0.3725845 250.25900346 -0.36893743 253.73703003 -0.36076355 C255.23998936 -0.37387134 255.23998936 -0.37387134 256.7733115 -0.38724393 C269.02668775 -0.30962951 279.37461146 3.71864337 288.33203125 12.2109375 C297.82363665 22.5301968 301.72506605 33.5361324 301.3515625 47.6953125 C300.39519985 56.6851214 297.34498536 64.7398733 292 72 C291.443125 72.845625 290.88625 73.69125 290.3125 74.5625 C281.47417725 83.87856992 270.26972128 88.61816988 257.56375313 89.09058011 C254.77712102 89.12547189 251.99216286 89.12850034 249.20532227 89.12025452 C248.14084681 89.12110894 247.07637135 89.12196337 245.97963905 89.12284368 C242.42521081 89.12448622 238.87083012 89.1189972 235.31640625 89.11352539 C232.76353456 89.11324323 230.21066278 89.11340182 227.65779114 89.1139679 C222.16799315 89.11419536 216.67821038 89.11136532 211.18841553 89.10573006 C203.25118856 89.09758784 195.31396733 89.09499705 187.37673664 89.09374207 C174.49773653 89.09155582 161.61874276 89.08490733 148.73974609 89.07543945 C136.23225944 89.06625427 123.72477451 89.05917885 111.21728516 89.05493164 C110.44575509 89.05466892 109.67422502 89.05440619 108.87931526 89.05413551 C105.00860589 89.05283043 101.13789651 89.05156673 97.26718712 89.05032361 C65.17812013 89.03996431 33.08906095 89.02235762 1 89 C1 85.52847049 1.74784032 84.39700256 3.51953125 81.46484375 C4.04740234 80.57216797 4.57527344 79.67949219 5.11914062 78.75976562 C6.23288335 76.90352774 7.34997978 75.04929725 8.47070312 73.19726562 C15.8929513 60.61093205 18.68839333 47.4443785 15.7734375 32.9453125 C13.02781648 22.48976578 7.5681601 13.55404321 2.01171875 4.39453125 C0 1 0 1 0 0 Z " fill="#EBB916" transform="translate(26,323)"/>
<path d="M0 0 C33.69965447 0.03601703 67.39919975 0.09298428 101.09876527 0.17792095 C105.08024744 0.18793802 109.06173003 0.19778221 113.04321289 0.20751953 C114.23214006 0.21043159 114.23214006 0.21043159 115.44508597 0.21340248 C128.26723907 0.24439606 141.08937428 0.26139575 153.91155777 0.27319422 C167.07517626 0.28561949 180.23870112 0.31315189 193.40226048 0.35461307 C201.52031437 0.37970917 209.63821291 0.39312013 217.75630613 0.39142957 C223.98864798 0.39139621 230.22075978 0.41241476 236.45303154 0.44116783 C239.00430072 0.44967184 241.55560301 0.4514134 244.10688019 0.44580269 C247.59786745 0.43914926 251.08791857 0.45711746 254.57881165 0.48101807 C255.58176264 0.47325765 256.58471363 0.46549723 257.61805707 0.45750165 C269.58315127 0.6019125 279.07231907 5.18471381 288 13 C296.84492683 22.46884283 300.85702799 34.18017601 301 47 C299.87090817 60.17273805 294.6950921 71.32581564 284.64453125 80.04296875 C275.40028199 86.93573966 266.01508746 89.60747108 254.57881165 89.51898193 C253.48318804 89.52648319 252.38756444 89.53398444 251.25874013 89.541713 C247.61671396 89.56188387 243.97531667 89.55390798 240.33325195 89.54589844 C237.71096688 89.55463916 235.08868714 89.56512668 232.46641541 89.57722473 C226.83586734 89.60046016 221.20544778 89.60928869 215.5748539 89.60811615 C207.43415989 89.60644205 199.29363647 89.62683091 191.1529881 89.65247145 C177.94290207 89.69348601 164.73284688 89.71684844 151.52270508 89.72900391 C138.69617757 89.74084442 125.86970804 89.76106432 113.04321289 89.79248047 C111.85573659 89.79538462 111.85573659 89.79538462 110.64427087 89.79834744 C106.67248455 89.8081125 102.70069866 89.81804152 98.72891295 89.82805204 C65.81930012 89.91078587 32.90969857 89.96482725 0 90 C0.78674288 85.28004574 2.70027982 81.92092538 5.25 77.9375 C13.99280282 63.84146514 18.19058989 50.33265499 15.45703125 33.6953125 C12.48615119 22.73234664 6.27391741 12.41087612 0 3 C0 2.01 0 1.02 0 0 Z " fill="#A1D571" transform="translate(0,234)"/>
<path d="M0 0 C1.85485928 6.94081186 3.70588133 13.88263865 5.55419922 20.82519531 C6.18384231 23.18838855 6.81437373 25.55134529 7.44580078 27.9140625 C8.35160496 31.30407376 9.25424373 34.69491401 10.15625 38.0859375 C10.5827887 39.67817642 10.5827887 39.67817642 11.01794434 41.30258179 C11.27821411 42.28344757 11.53848389 43.26431335 11.80664062 44.27490234 C12.15305603 45.57396011 12.15305603 45.57396011 12.50646973 46.89926147 C13 49 13 49 13 51 C3.49715136 53.99629229 -6.06294997 56.72385729 -15.6796875 59.328125 C-16.39821018 59.52304283 -17.11673286 59.71796066 -17.85702896 59.9187851 C-21.64452737 60.945926 -25.43278183 61.97022154 -29.22167969 62.9921875 C-33.1137298 64.04263276 -37.00287196 65.10346499 -40.89149284 66.16652298 C-43.90802956 66.9890933 -46.92664269 67.80382877 -49.94586563 68.61647797 C-51.38109026 69.00424649 -52.81552582 69.39494871 -54.24911118 69.78873444 C-56.25100598 70.33787288 -58.25561695 70.87576063 -60.26123047 71.41113281 C-61.39672333 71.71883606 -62.53221619 72.02653931 -63.70211792 72.34356689 C-67.21279593 73.04235636 -70.42965639 73.11515753 -74 73 C-75.85670108 66.22043489 -77.70751197 59.43928199 -79.55419922 52.65698242 C-80.18337027 50.3489933 -80.81389843 48.04137368 -81.44580078 45.73413086 C-82.35284119 42.42136867 -83.25502343 39.10731661 -84.15625 35.79296875 C-84.44060913 34.7585112 -84.72496826 33.72405365 -85.01794434 32.6582489 C-85.27821411 31.6974794 -85.53848389 30.7367099 -85.80664062 29.74682617 C-86.03758423 28.90077316 -86.26852783 28.05472015 -86.50646973 27.18302917 C-87 25 -87 25 -87 22 C-86.11985229 21.77449463 -86.11985229 21.77449463 -85.22192383 21.54443359 C-74.54750829 18.80251499 -63.8958624 16.01423392 -53.3125 12.9375 C-45.67160146 10.71731981 -38.000219 8.71222115 -30.26831055 6.83496094 C-23.9588383 5.28701023 -17.74016049 3.50731986 -11.55371094 1.52319336 C-7.55149913 0.28238757 -4.16859047 -0.08618852 0 0 Z " fill="#DC332D" transform="translate(460,338)"/>
<path d="M0 0 C1.85660637 6.92203519 3.70742842 13.84559795 5.55419922 20.77026367 C6.18339449 23.12674128 6.81392285 25.48286336 7.44580078 27.83862305 C8.35277754 31.2209202 9.25498358 34.60445866 10.15625 37.98828125 C10.5827887 39.57277824 10.5827887 39.57277824 11.01794434 41.18928528 C11.27821411 42.17007553 11.53848389 43.15086578 11.80664062 44.16137695 C12.03758423 45.02519485 12.26852783 45.88901276 12.50646973 46.77900696 C13 49 13 49 13 52 C11.40885417 52.42838542 9.81770833 52.85677083 8.2265625 53.28515625 C7.18733643 53.56496338 6.14811035 53.84477051 5.07739258 54.13305664 C2.7439278 54.76126542 0.41043086 55.38935474 -1.9230957 56.01733398 C-7.85181484 57.61299393 -13.78010289 59.21020012 -19.70703125 60.8125 C-31.30101982 63.94455418 -42.90238029 67.04208643 -54.5300293 70.04711914 C-55.41086182 70.27520264 -56.29169434 70.50328613 -57.19921875 70.73828125 C-58.02599121 70.95049316 -58.85276367 71.16270508 -59.70458984 71.38134766 C-61.77183662 71.93850606 -63.79486863 72.57408015 -65.83203125 73.23046875 C-69.11980094 74.02910084 -70.77875701 73.76696262 -74 73 C-75.854922 66.20163974 -77.70593693 59.40222461 -79.55419922 52.60205078 C-80.18382622 50.28735079 -80.81435756 47.9728966 -81.44580078 45.65869141 C-82.35164709 42.33820296 -83.2542703 39.01685305 -84.15625 35.6953125 C-84.44060913 34.65569366 -84.72496826 33.61607483 -85.01794434 32.54495239 C-85.27821411 31.58410736 -85.53848389 30.62326233 -85.80664062 29.63330078 C-86.03758423 28.78502716 -86.26852783 27.93675354 -86.50646973 27.06277466 C-87 25 -87 25 -87 23 C-69.98186552 17.92632246 -52.87992007 13.19967025 -35.71948242 8.63598633 C-32.30242355 7.72711998 -28.88702755 6.81215719 -25.47198772 5.89573765 C-22.17365533 5.01165457 -18.87386921 4.13305721 -15.57421875 3.25390625 C-13.74173836 2.76187462 -13.74173836 2.76187462 -11.87223816 2.25990295 C-10.74868423 1.96216476 -9.62513031 1.66442657 -8.4675293 1.35766602 C-7.48068649 1.09454117 -6.49384369 0.83141632 -5.47709656 0.56031799 C-3 0 -3 0 0 0 Z " fill="#DC332D" transform="translate(382,47)"/>
<path d="M0 0 C1.1451033 0.00129972 1.1451033 0.00129972 2.31334001 0.0026257 C3.11850441 -0.00034542 3.9236688 -0.00331654 4.75323212 -0.0063777 C7.47240049 -0.01510353 10.19152504 -0.01657622 12.91070634 -0.01806521 C14.85183381 -0.02269074 16.79296037 -0.02771504 18.73408586 -0.03311038 C24.02351667 -0.04626425 29.31293476 -0.05268545 34.60237938 -0.05712104 C37.90488735 -0.0600477 41.2073918 -0.06415178 44.50989801 -0.06862521 C54.83622857 -0.08230964 65.16255116 -0.09197097 75.48889017 -0.0958271 C87.42042708 -0.10030665 99.35184937 -0.11784583 111.28335142 -0.1468277 C120.49697961 -0.16843272 129.71057553 -0.1785308 138.92422879 -0.17986822 C144.43086618 -0.18091734 149.93739596 -0.1868475 155.44400674 -0.20468783 C160.62565381 -0.2211475 165.80711216 -0.22333421 170.98877603 -0.21454883 C172.89069194 -0.21377725 174.79261791 -0.21813696 176.69450837 -0.22800708 C179.29155467 -0.24069403 181.88792935 -0.2348675 184.48497087 -0.22442508 C185.23721946 -0.23248148 185.98946806 -0.24053789 186.76451206 -0.24883842 C191.48107879 -0.20450236 194.73255039 0.60273259 198.71661454 3.1430676 C201.06211129 6.66131271 201.29652857 8.00082454 200.71661454 12.1430676 C198.16637089 15.24471529 196.53962207 16.86873175 192.71661454 18.1430676 C190.09329266 18.24520353 187.49625985 18.29087652 184.87265092 18.29023862 C184.06507211 18.29391531 183.2574933 18.297592 182.4254424 18.3013801 C179.71015616 18.31242324 176.99490817 18.31626181 174.27960283 18.32006955 C172.33655756 18.3263336 170.39351349 18.33298035 168.45047075 18.33998227 C163.16536143 18.35739445 157.88026116 18.36794411 152.59513026 18.3761878 C149.2949646 18.38133631 145.99480175 18.38741203 142.69463807 18.39369893 C132.3741919 18.41274954 122.05375289 18.42698232 111.73329252 18.4353109 C99.81022201 18.44509117 87.88733677 18.47143188 75.96433157 18.51181179 C66.75407646 18.54193702 57.54387457 18.55677626 48.33357114 18.56009191 C42.82975112 18.56244602 37.32612905 18.57145363 31.82236177 18.59655309 C26.64639719 18.61977669 21.47076172 18.62409007 16.29475862 18.6137917 C14.39402754 18.61329488 12.49328058 18.61965828 10.59259874 18.63334775 C7.99951685 18.65098089 5.40762715 18.64400337 2.81454545 18.63081479 C1.68384966 18.64726866 1.68384966 18.64726866 0.53031152 18.66405493 C-4.35249214 18.60401227 -6.86111357 17.62880706 -10.28338546 14.1430676 C-11.727694 11.2544505 -11.66027051 9.34659059 -11.28338546 6.1430676 C-8.84588546 3.3305676 -8.84588546 3.3305676 -6.28338546 1.1430676 C-4.55000193 -0.59031593 -2.31130061 0.01290407 0 0 Z " fill="#88C057" transform="translate(64.28338545560837,269.8569324016571)"/>
<path d="M0 0 C1.23230748 -0.01169993 1.23230748 -0.01169993 2.48951006 -0.02363622 C5.24049342 -0.0435693 7.99009541 -0.02778698 10.74108887 -0.01205444 C12.71399239 -0.01882999 14.68688958 -0.02773276 16.65977478 -0.03860474 C22.0172391 -0.06141202 27.37422237 -0.05255568 32.73169518 -0.03670931 C38.33611735 -0.02405781 43.9404981 -0.03578834 49.54492188 -0.04364014 C58.95690309 -0.05273886 68.3686882 -0.04074284 77.78063965 -0.01693726 C88.66496576 0.01027433 99.5488236 0.00146033 110.43313837 -0.02606928 C119.7751067 -0.0487529 129.11693399 -0.05196406 138.45892096 -0.03887594 C144.03983582 -0.03107736 149.62053052 -0.03005115 155.20143127 -0.04655838 C160.4481354 -0.06099288 165.69423531 -0.05099973 170.9408741 -0.0220871 C172.86738646 -0.01547087 174.7939496 -0.01738309 176.72044182 -0.02840042 C179.3487401 -0.04204646 181.97509724 -0.02495274 184.60327148 0 C185.36737729 -0.01115361 186.13148309 -0.02230722 186.91874361 -0.03379881 C190.85129106 0.03872306 192.63805942 0.50723346 195.77497101 2.9558506 C197.80163574 5.63491821 197.80163574 5.63491821 198.42663574 9.13491821 C197.64752619 13.4979317 196.23571997 14.9195958 192.80163574 17.63491821 C189.1611395 18.84841696 185.82361775 18.77973597 182.03359985 18.77536011 C181.23418815 18.77833123 180.43477644 18.78130235 179.61114013 18.78436351 C176.92348883 18.7930583 174.23588204 18.79455941 171.54821777 18.79605103 C169.62487696 18.8006786 167.70153706 18.80570318 165.77819824 18.81109619 C160.5468024 18.82422694 155.3154194 18.83066632 150.08400965 18.83510685 C146.81734576 18.83803613 143.5506854 18.84214064 140.28402328 18.84661102 C130.06822638 18.86028694 119.85243751 18.86995347 109.63663208 18.87381291 C97.8347159 18.87829582 86.0329154 18.89585414 74.2310344 18.92481351 C65.11419598 18.94640974 55.99739016 18.95651607 46.88052642 18.95785403 C41.43263612 18.95890342 35.98485455 18.9648398 30.53699112 18.98267365 C25.41359507 18.99911901 20.29038992 19.00132704 15.16697693 18.99253464 C13.28560247 18.9917624 11.40421789 18.99613148 9.52286911 19.00599289 C6.95623011 19.01865842 4.39027277 19.0128652 1.82363892 19.00241089 C1.07762362 19.01046729 0.33160832 19.0185237 -0.43701351 19.02682424 C-6.07838407 18.97301268 -9.25063724 17.58264523 -13.19836426 13.63491821 C-13.99854467 6.66191752 -13.99854467 6.66191752 -11.17584991 3.03910255 C-7.43414374 0.01784488 -4.60756356 -0.06725634 0 0 Z " fill="#199172" transform="translate(93.1983642578125,181.36508178710938)"/>
<path d="M0 0 C1.23715117 -0.01041829 1.23715117 -0.01041829 2.49929529 -0.02104706 C5.26702109 -0.0393649 8.03389436 -0.02903961 10.801651 -0.01878357 C12.78425744 -0.02583964 14.76685849 -0.03458334 16.74945068 -0.04489136 C22.1378954 -0.06743033 27.52604702 -0.06443502 32.91452098 -0.05556989 C37.41022957 -0.05046673 41.90588275 -0.05774712 46.40158564 -0.06504196 C57.00601848 -0.08205538 67.61030747 -0.07846065 78.21473694 -0.06175232 C89.16094579 -0.04482868 100.10675594 -0.06066578 111.05292124 -0.0929752 C120.44581366 -0.11965127 129.83858181 -0.12695247 139.23150831 -0.11846012 C144.84374911 -0.11352523 150.45574995 -0.11577699 156.06796074 -0.13624763 C161.34499901 -0.15457352 166.62146273 -0.1486837 171.89846992 -0.12404823 C173.83627662 -0.11903055 175.77412685 -0.12255482 177.7118988 -0.13519669 C180.35555333 -0.1510805 182.99730511 -0.13622156 185.64086914 -0.11352539 C186.40954801 -0.12536112 187.17822688 -0.13719685 187.97019905 -0.14939123 C191.91383111 -0.08050419 193.71300764 0.38139694 196.86005497 2.83517551 C198.88392639 5.5146637 198.88392639 5.5146637 199.50892639 9.0146637 C198.70785666 13.5006542 197.45372634 14.72814163 193.88392639 17.5146637 C190.95516438 18.00734134 188.60910221 18.19225666 185.68556213 18.14958191 C184.45325465 18.16128184 184.45325465 18.16128184 183.19605207 18.17321813 C180.44506871 18.19315121 177.69546672 18.17736889 174.94447327 18.16163635 C172.97156975 18.1684119 170.99867255 18.17731467 169.02578735 18.18818665 C163.66832303 18.21099393 158.31133977 18.20213759 152.95386696 18.18629122 C147.34944479 18.17363972 141.74506403 18.18537025 136.14064026 18.19322205 C126.72865904 18.20232077 117.31687394 18.19032474 107.90492249 18.16651917 C97.02059637 18.13930758 86.13673853 18.14812158 75.25242376 18.17565119 C65.91045543 18.1983348 56.56862815 18.20154597 47.22664118 18.18845785 C41.64572631 18.18065927 36.06503161 18.17963306 30.48413086 18.19614029 C25.23742673 18.21057478 19.99132683 18.20058164 14.74468803 18.17166901 C12.81817567 18.16505278 10.89161253 18.166965 8.96512032 18.17798233 C6.33682204 18.19162837 3.7104649 18.17453465 1.08229065 18.14958191 C0.31818485 18.16073552 -0.44592095 18.17188913 -1.23318148 18.18338072 C-5.22749125 18.10971986 -6.94328126 17.6546473 -10.08916473 15.10608482 C-12.08144807 12.55893276 -12.78522407 11.6077626 -12.67857361 8.4521637 C-12.11607361 4.5146637 -12.11607361 4.5146637 -10.58817196 2.30073643 C-7.15861775 -0.17709107 -4.07476036 -0.04355783 0 0 Z " fill="#EC8A18" transform="translate(92.11607360839844,358.48533630371094)"/>
<path d="M0 0 C1.14574294 4.19750239 2.28487398 8.39672665 3.41796875 12.59765625 C3.80418527 14.02587977 4.1921898 15.45362104 4.58203125 16.88085938 C5.14275752 18.93494847 5.69698571 20.99069811 6.25 23.046875 C6.75273437 24.90070801 6.75273437 24.90070801 7.265625 26.79199219 C8 30 8 30 8 34 C-1.60308273 36.94877269 -11.24276007 39.60703536 -21 42 C-27.8831499 43.68858309 -34.71921622 45.43708078 -41.5 47.5 C-48.54048656 49.62546296 -55.6282937 51.54029862 -62.75 53.375 C-63.78705078 53.65021484 -64.82410156 53.92542969 -65.89257812 54.20898438 C-67.36114258 54.58120117 -67.36114258 54.58120117 -68.859375 54.9609375 C-69.73045898 55.18571777 -70.60154297 55.41049805 -71.49902344 55.64208984 C-74.26468105 56.03787802 -76.3111859 55.69721154 -79 55 C-80.14411181 50.7837502 -81.2833069 46.56621222 -82.41796875 42.34741211 C-82.80464039 40.91247755 -83.19265212 39.4779034 -83.58203125 38.04370117 C-84.1415532 35.98189132 -84.69623959 33.91883244 -85.25 31.85546875 C-85.58515625 30.61434326 -85.9203125 29.37321777 -86.265625 28.09448242 C-87 25 -87 25 -87 22 C-86.07441284 21.77449463 -86.07441284 21.77449463 -85.13012695 21.54443359 C-73.24208029 18.6375145 -61.41484578 15.6125646 -49.66625977 12.18334961 C-42.90744985 10.22376298 -36.10775968 8.49637082 -29.27026367 6.83496094 C-22.93358188 5.27909337 -16.68603832 3.49399136 -10.46582031 1.52319336 C-6.8349319 0.40311218 -3.78251242 -0.09513972 0 0 Z " fill="#B12621" transform="translate(396,99)"/>
<path d="M0 0 C2.58879859 6.49143189 4.45019488 13.04773414 6.1875 19.8125 C6.46013672 20.84826172 6.73277344 21.88402344 7.01367188 22.95117188 C9 30.61272321 9 30.61272321 9 34 C7.75347656 34.30292969 6.50695312 34.60585938 5.22265625 34.91796875 C-2.98609849 36.93117641 -11.16179886 38.97985839 -19.25 41.4375 C-27.13261254 43.82815169 -35.10059944 45.80176865 -43.10058594 47.75830078 C-49.95846149 49.44920873 -56.74058535 51.29985436 -63.47265625 53.43945312 C-67.99846643 54.84254876 -72.30612277 55.51711219 -77 56 C-79.58879859 49.50856811 -81.45019488 42.95226586 -83.1875 36.1875 C-83.46013672 35.15173828 -83.73277344 34.11597656 -84.01367188 33.04882812 C-86 25.38727679 -86 25.38727679 -86 22 C-62.42297595 15.28491426 -62.42297595 15.28491426 -50.75 12.4375 C-43.84956228 10.75263093 -37.01188952 8.90815629 -30.1875 6.9375 C-28.87604004 6.55911987 -28.87604004 6.55911987 -27.53808594 6.1730957 C-25.83447062 5.68132217 -24.13085728 5.18954176 -22.42724609 4.69775391 C-18.79048184 3.65230307 -15.14948176 2.62514018 -11.5 1.625 C-9.78296875 1.14933594 -9.78296875 1.14933594 -8.03125 0.6640625 C-5.23451666 0.05137607 -2.84880532 -0.13818832 0 0 Z " fill="#B12621" transform="translate(450,304)"/>
<path d="M0 0 C5.58428478 4.13873803 6.47561159 9.05927034 7.9375 15.5 C8.44297364 17.57999686 8.95083835 19.65941392 9.4609375 21.73828125 C9.84137207 23.31150146 9.84137207 23.31150146 10.22949219 24.91650391 C11.38558373 29.54306795 12.71879437 34.11259481 14.0625 38.6875 C16.25912113 46.24223436 18.23640561 53.82805498 20.10351562 61.47021484 C21.62142402 67.62550311 23.3037711 73.7219238 25.0625 79.8125 C25.44075928 81.12891479 25.44075928 81.12891479 25.82666016 82.47192383 C27.22943132 87.34813433 27.22943132 87.34813433 28.65478516 92.21777344 C33.46355531 108.54238315 33.46355531 108.54238315 32 115 C29.30445492 118.43069374 27.74647049 118.90832819 23.4375 119.4375 C19.75850968 118.96926487 18.65083966 118.46836677 16 116 C15.05419922 113.90844727 15.05419922 113.90844727 14.4296875 111.50390625 C14.19088867 110.61461426 13.95208984 109.72532227 13.70605469 108.80908203 C13.47305664 107.88208496 13.24005859 106.95508789 13 106 C12.76442383 105.11038574 12.52884766 104.22077148 12.28613281 103.30419922 C11.55157187 100.5187802 10.83699703 97.72876568 10.125 94.9375 C8.36625256 88.10707921 6.54818202 81.31185043 4.5 74.5625 C2.13132752 66.73861613 0.18297088 58.82576407 -1.76293945 50.88769531 C-3.26284951 44.81448737 -4.87726074 38.80032083 -6.6875 32.8125 C-13.09312674 11.51524634 -13.09312674 11.51524634 -12 4 C-8.52445854 -0.21277753 -5.30670762 -0.85286372 0 0 Z " fill="#B12621" transform="translate(374,170)"/>
</svg>
